<svg xmlns="http://www.w3.org/2000/svg" xmlns:xlink="http://www.w3.org/1999/xlink" width="500" zoomAndPan="magnify" viewBox="0 0 375 374.999991" height="500" preserveAspectRatio="xMidYMid meet" version="1.0"><defs><g/><clipPath id="031041aefa"><path d="M 87 65 L 313 65 L 313 185.523438 L 87 185.523438 Z M 87 65 " clip-rule="nonzero"/></clipPath><clipPath id="8308e6228a"><path d="M 37.300781 159 L 184 159 L 184 179 L 37.300781 179 Z M 37.300781 159 " clip-rule="nonzero"/></clipPath><clipPath id="9c84e815fa"><rect x="0" width="244" y="0" height="59"/></clipPath><clipPath id="f0c89a0d72"><rect x="0" width="233" y="0" height="18"/></clipPath></defs><rect x="-37.5" width="450" fill="#ffffff" y="-37.499999" height="449.999989" fill-opacity="1"/><rect x="-37.5" width="450" fill="#ffffff" y="-37.499999" height="449.999989" fill-opacity="1"/><g clip-path="url(#031041aefa)"><path fill="#0581b0" d="M 162.410156 68.746094 C 129.746094 74.5 103.429688 86.433594 87.300781 101.0625 C 102.9375 90.066406 124.976562 81.261719 151.3125 76.621094 C 214.320312 65.515625 277.910156 82.390625 293.347656 114.308594 C 306.304688 141.105469 281.195312 169.984375 235.527344 185.136719 C 291.550781 171.082031 324.132812 138.132812 309.441406 107.757812 C 293.460938 74.714844 227.636719 57.25 162.410156 68.746094 " fill-opacity="1" fill-rule="nonzero"/></g><path fill="#0581b0" d="M 204.808594 133.632812 C 208.09375 134.082031 213.734375 140.320312 208.453125 150.933594 C 203.167969 161.542969 191.402344 159.59375 189.148438 151.621094 C 186.898438 143.648438 194.898438 132.273438 204.808594 133.632812 " fill-opacity="1" fill-rule="nonzero"/><path fill="#0581b0" d="M 96.589844 139.738281 C 96.589844 139.738281 120.128906 108.535156 140.367188 110.054688 C 160.605469 111.574219 189.785156 160.351562 190.089844 164.167969 C 190.398438 167.976562 177.496094 165.683594 172.589844 164.835938 C 167.675781 163.984375 129.917969 151.074219 142.714844 152.175781 C 156.222656 153.335938 160.90625 153.992188 161.242188 150.789062 C 161.582031 147.585938 150.238281 127.515625 135.96875 124 C 121.691406 120.488281 96.589844 139.738281 96.589844 139.738281 " fill-opacity="1" fill-rule="nonzero"/><path fill="#0581b0" d="M 99.328125 165.351562 C 99.328125 165.351562 123.539062 140.929688 164.980469 157.121094 C 178.605469 162.445312 198.390625 164.914062 214.378906 164.921875 C 235.765625 164.9375 251.871094 161.28125 251.871094 161.28125 C 251.871094 161.28125 238.535156 170.941406 213.832031 172.546875 C 186.097656 174.351562 172.632812 168.605469 150.519531 160.652344 C 122.46875 150.570312 99.328125 165.351562 99.328125 165.351562 " fill-opacity="1" fill-rule="nonzero"/><g clip-path="url(#8308e6228a)"><path fill="#0581b0" d="M 37.839844 163.421875 C 37.839844 163.421875 58.191406 181.097656 86.996094 178.546875 C 103.15625 177.113281 112.183594 167.300781 134.878906 167.300781 C 157.816406 167.300781 167.246094 174.351562 183.3125 173.917969 C 164.675781 170.0625 144.320312 156.785156 124.398438 159.570312 C 104.957031 162.285156 101.683594 171.085938 81.011719 172.097656 C 55.101562 173.367188 37.839844 163.421875 37.839844 163.421875 " fill-opacity="1" fill-rule="nonzero"/></g><g transform="matrix(1, 0, 0, 1, 62, 186)"><g clip-path="url(#9c84e815fa)"><g fill="#004aad" fill-opacity="1"><g transform="translate(1.162099, 43.575593)"><g><path d="M 12.515625 0 L 4.484375 0 L 4.484375 -40.078125 L 20.265625 -40.078125 C 22.515625 -40.078125 24.429688 -39.628906 26.015625 -38.734375 C 27.609375 -37.835938 28.875 -36.660156 29.8125 -35.203125 C 30.75 -33.742188 31.375 -32.125 31.6875 -30.34375 C 32.007812 -28.5625 32.007812 -26.789062 31.6875 -25.03125 C 31.375 -23.28125 30.738281 -21.671875 29.78125 -20.203125 C 28.820312 -18.742188 27.546875 -17.566406 25.953125 -16.671875 C 24.367188 -15.773438 22.472656 -15.328125 20.265625 -15.328125 L 12.515625 -15.328125 Z M 12.515625 -23.125 L 19.59375 -23.125 C 20.675781 -23.125 21.535156 -23.421875 22.171875 -24.015625 C 22.804688 -24.617188 23.234375 -25.367188 23.453125 -26.265625 C 23.679688 -27.171875 23.679688 -28.070312 23.453125 -28.96875 C 23.234375 -29.863281 22.804688 -30.609375 22.171875 -31.203125 C 21.535156 -31.804688 20.675781 -32.109375 19.59375 -32.109375 L 12.515625 -32.109375 Z M 12.515625 -23.125 "/></g></g></g><g fill="#004aad" fill-opacity="1"><g transform="translate(41.137802, 43.575593)"><g><path d="M 0.890625 0 L 17.796875 -41.59375 L 18.640625 -41.59375 L 35.53125 0 L 26.5 0 L 24.875 -4.328125 L 11.5625 -4.328125 L 10 0 Z M 14.484375 -11.84375 L 21.890625 -11.84375 L 18.25 -22.28125 Z M 14.484375 -11.84375 "/></g></g></g><g fill="#004aad" fill-opacity="1"><g transform="translate(83.920757, 43.575593)"><g><path d="M 30.03125 -30.828125 C 29.28125 -31.234375 28.375 -31.625 27.3125 -32 C 26.25 -32.375 24.835938 -32.5625 23.078125 -32.5625 C 20.796875 -32.5625 18.847656 -32.117188 17.234375 -31.234375 C 15.628906 -30.359375 14.335938 -29.191406 13.359375 -27.734375 C 12.390625 -26.273438 11.734375 -24.675781 11.390625 -22.9375 C 11.054688 -21.195312 11.054688 -19.457031 11.390625 -17.71875 C 11.734375 -15.976562 12.390625 -14.375 13.359375 -12.90625 C 14.335938 -11.445312 15.628906 -10.273438 17.234375 -9.390625 C 18.847656 -8.515625 20.796875 -8.078125 23.078125 -8.078125 C 24.835938 -8.078125 26.378906 -8.28125 27.703125 -8.6875 C 29.035156 -9.101562 30.078125 -9.5 30.828125 -9.875 L 31.890625 -1.578125 C 30.648438 -1.085938 29.222656 -0.679688 27.609375 -0.359375 C 26.003906 -0.046875 24.492188 0.109375 23.078125 0.109375 C 19.671875 0.109375 16.691406 -0.457031 14.140625 -1.59375 C 11.597656 -2.738281 9.472656 -4.285156 7.765625 -6.234375 C 6.066406 -8.179688 4.796875 -10.359375 3.953125 -12.765625 C 3.109375 -15.179688 2.6875 -17.679688 2.6875 -20.265625 C 2.6875 -22.847656 3.109375 -25.34375 3.953125 -27.75 C 4.796875 -30.164062 6.066406 -32.347656 7.765625 -34.296875 C 9.472656 -36.242188 11.597656 -37.785156 14.140625 -38.921875 C 16.691406 -40.066406 19.671875 -40.640625 23.078125 -40.640625 C 25.992188 -40.640625 28.628906 -40.117188 30.984375 -39.078125 Z M 30.03125 -30.828125 "/></g></g></g><g fill="#004aad" fill-opacity="1"><g transform="translate(123.840319, 43.575593)"><g><path d="M 12.515625 0 L 4.484375 0 L 4.484375 -40.140625 L 12.515625 -40.140625 Z M 12.515625 0 "/></g></g></g><g fill="#004aad" fill-opacity="1"><g transform="translate(147.028659, 43.575593)"><g><path d="M 24.53125 -32.109375 L 12.515625 -32.109375 L 12.515625 -24.078125 L 22.734375 -24.078125 L 22.734375 -16.0625 L 12.515625 -16.0625 L 12.515625 0 L 4.484375 0 L 4.484375 -40.140625 L 24.53125 -40.140625 Z M 24.53125 -32.109375 "/></g></g></g><g fill="#004aad" fill-opacity="1"><g transform="translate(179.8178, 43.575593)"><g><path d="M 12.515625 0 L 4.484375 0 L 4.484375 -40.140625 L 12.515625 -40.140625 Z M 12.515625 0 "/></g></g></g><g fill="#004aad" fill-opacity="1"><g transform="translate(203.006139, 43.575593)"><g><path d="M 30.03125 -30.828125 C 29.28125 -31.234375 28.375 -31.625 27.3125 -32 C 26.25 -32.375 24.835938 -32.5625 23.078125 -32.5625 C 20.796875 -32.5625 18.847656 -32.117188 17.234375 -31.234375 C 15.628906 -30.359375 14.335938 -29.191406 13.359375 -27.734375 C 12.390625 -26.273438 11.734375 -24.675781 11.390625 -22.9375 C 11.054688 -21.195312 11.054688 -19.457031 11.390625 -17.71875 C 11.734375 -15.976562 12.390625 -14.375 13.359375 -12.90625 C 14.335938 -11.445312 15.628906 -10.273438 17.234375 -9.390625 C 18.847656 -8.515625 20.796875 -8.078125 23.078125 -8.078125 C 24.835938 -8.078125 26.378906 -8.28125 27.703125 -8.6875 C 29.035156 -9.101562 30.078125 -9.5 30.828125 -9.875 L 31.890625 -1.578125 C 30.648438 -1.085938 29.222656 -0.679688 27.609375 -0.359375 C 26.003906 -0.046875 24.492188 0.109375 23.078125 0.109375 C 19.671875 0.109375 16.691406 -0.457031 14.140625 -1.59375 C 11.597656 -2.738281 9.472656 -4.285156 7.765625 -6.234375 C 6.066406 -8.179688 4.796875 -10.359375 3.953125 -12.765625 C 3.109375 -15.179688 2.6875 -17.679688 2.6875 -20.265625 C 2.6875 -22.847656 3.109375 -25.34375 3.953125 -27.75 C 4.796875 -30.164062 6.066406 -32.347656 7.765625 -34.296875 C 9.472656 -36.242188 11.597656 -37.785156 14.140625 -38.921875 C 16.691406 -40.066406 19.671875 -40.640625 23.078125 -40.640625 C 25.992188 -40.640625 28.628906 -40.117188 30.984375 -39.078125 Z M 30.03125 -30.828125 "/></g></g></g></g></g><g transform="matrix(1, 0, 0, 1, 71, 240)"><g clip-path="url(#f0c89a0d72)"><g fill="#004aad" fill-opacity="1"><g transform="translate(1.481471, 13.064442)"><g><path d="M 7.46875 -7.515625 C 7.4375 -8.191406 7.179688 -8.722656 6.703125 -9.109375 C 6.234375 -9.492188 5.609375 -9.6875 4.828125 -9.6875 C 4.046875 -9.6875 3.445312 -9.523438 3.03125 -9.203125 C 2.613281 -8.878906 2.40625 -8.414062 2.40625 -7.8125 C 2.40625 -7.488281 2.492188 -7.210938 2.671875 -6.984375 C 2.859375 -6.753906 3.1875 -6.582031 3.65625 -6.46875 L 6.703125 -5.78125 C 7.515625 -5.601562 8.117188 -5.265625 8.515625 -4.765625 C 8.910156 -4.265625 9.109375 -3.65625 9.109375 -2.9375 C 9.109375 -1.882812 8.722656 -1.082031 7.953125 -0.53125 C 7.179688 0.0078125 6.179688 0.28125 4.953125 0.28125 C 4.003906 0.28125 3.257812 0.160156 2.71875 -0.078125 C 2.175781 -0.316406 1.695312 -0.695312 1.28125 -1.21875 C 0.863281 -1.75 0.65625 -2.488281 0.65625 -3.4375 L 2 -3.4375 C 2 -2.644531 2.257812 -2.03125 2.78125 -1.59375 C 3.3125 -1.164062 4.03125 -0.953125 4.9375 -0.953125 C 5.8125 -0.953125 6.492188 -1.101562 6.984375 -1.40625 C 7.472656 -1.71875 7.71875 -2.160156 7.71875 -2.734375 C 7.71875 -3.253906 7.570312 -3.644531 7.28125 -3.90625 C 6.988281 -4.164062 6.414062 -4.394531 5.5625 -4.59375 L 3.28125 -5.125 C 2.519531 -5.300781 1.945312 -5.601562 1.5625 -6.03125 C 1.1875 -6.46875 1 -7 1 -7.625 C 1 -8.582031 1.320312 -9.367188 1.96875 -9.984375 C 2.613281 -10.609375 3.515625 -10.921875 4.671875 -10.921875 C 5.972656 -10.921875 6.972656 -10.644531 7.671875 -10.09375 C 8.378906 -9.550781 8.757812 -8.691406 8.8125 -7.515625 Z M 7.46875 -7.515625 "/></g></g></g><g fill="#004aad" fill-opacity="1"><g transform="translate(16.989687, 13.064442)"><g><path d="M 4.609375 0 L 3.078125 0 L 0.3125 -10.625 L 1.859375 -10.625 L 3.84375 -1.984375 L 3.890625 -1.984375 L 6.265625 -10.625 L 7.828125 -10.625 L 10.21875 -1.984375 L 10.25 -1.984375 L 12.234375 -10.625 L 13.84375 -10.625 L 11.015625 0 L 9.53125 0 L 7.09375 -8.8125 L 7.0625 -8.8125 Z M 4.609375 0 "/></g></g></g><g fill="#004aad" fill-opacity="1"><g transform="translate(36.806732, 13.064442)"><g><path d="M 2.640625 0 L 1.203125 0 L 1.203125 -10.625 L 2.640625 -10.625 Z M 2.640625 0 "/></g></g></g><g fill="#004aad" fill-opacity="1"><g transform="translate(46.328858, 13.064442)"><g><path d="M 10 0 L 10 -6.28125 C 10 -6.363281 10.003906 -6.765625 10.015625 -7.484375 C 10.023438 -8.203125 10.03125 -8.6875 10.03125 -8.9375 L 9.984375 -8.9375 L 7.015625 0 L 5.578125 0 L 2.609375 -8.921875 L 2.5625 -8.921875 C 2.5625 -8.554688 2.566406 -8.046875 2.578125 -7.390625 C 2.585938 -6.734375 2.59375 -6.363281 2.59375 -6.28125 L 2.59375 0 L 1.203125 0 L 1.203125 -10.625 L 3.25 -10.625 L 6.28125 -1.640625 L 6.328125 -1.640625 L 9.328125 -10.625 L 11.390625 -10.625 L 11.390625 0 Z M 10 0 "/></g></g></g><g fill="#004aad" fill-opacity="1"><g transform="translate(64.62047, 13.064442)"><g><path d="M 10 0 L 10 -6.28125 C 10 -6.363281 10.003906 -6.765625 10.015625 -7.484375 C 10.023438 -8.203125 10.03125 -8.6875 10.03125 -8.9375 L 9.984375 -8.9375 L 7.015625 0 L 5.578125 0 L 2.609375 -8.921875 L 2.5625 -8.921875 C 2.5625 -8.554688 2.566406 -8.046875 2.578125 -7.390625 C 2.585938 -6.734375 2.59375 -6.363281 2.59375 -6.28125 L 2.59375 0 L 1.203125 0 L 1.203125 -10.625 L 3.25 -10.625 L 6.28125 -1.640625 L 6.328125 -1.640625 L 9.328125 -10.625 L 11.390625 -10.625 L 11.390625 0 Z M 10 0 "/></g></g></g><g fill="#004aad" fill-opacity="1"><g transform="translate(82.912082, 13.064442)"><g><path d="M 2.640625 0 L 1.203125 0 L 1.203125 -10.625 L 2.640625 -10.625 Z M 2.640625 0 "/></g></g></g><g fill="#004aad" fill-opacity="1"><g transform="translate(92.434207, 13.064442)"><g><path d="M 8.234375 -10.625 L 9.625 -10.625 L 9.625 0 L 8.03125 0 L 2.609375 -8.59375 L 2.578125 -8.59375 L 2.578125 0 L 1.203125 0 L 1.203125 -10.625 L 2.890625 -10.625 L 8.203125 -2.046875 L 8.234375 -2.046875 Z M 8.234375 -10.625 "/></g></g></g><g fill="#004aad" fill-opacity="1"><g transform="translate(108.961802, 13.064442)"><g><path d="M 5.703125 -5.6875 L 10.375 -5.6875 L 10.375 0 L 9.4375 0 L 9.09375 -1.375 C 8.632812 -0.789062 8.097656 -0.367188 7.484375 -0.109375 C 6.878906 0.148438 6.242188 0.28125 5.578125 0.28125 C 4.515625 0.28125 3.625 0.0507812 2.90625 -0.40625 C 2.195312 -0.875 1.644531 -1.519531 1.25 -2.34375 C 0.851562 -3.164062 0.65625 -4.1875 0.65625 -5.40625 C 0.65625 -6.9375 1.109375 -8.238281 2.015625 -9.3125 C 2.921875 -10.382812 4.144531 -10.921875 5.6875 -10.921875 C 6.832031 -10.921875 7.832031 -10.597656 8.6875 -9.953125 C 9.550781 -9.304688 10.050781 -8.457031 10.1875 -7.40625 L 8.796875 -7.40625 C 8.628906 -8.101562 8.273438 -8.648438 7.734375 -9.046875 C 7.191406 -9.441406 6.484375 -9.640625 5.609375 -9.640625 C 4.566406 -9.640625 3.726562 -9.242188 3.09375 -8.453125 C 2.457031 -7.671875 2.140625 -6.628906 2.140625 -5.328125 C 2.140625 -3.816406 2.453125 -2.707031 3.078125 -2 C 3.710938 -1.300781 4.578125 -0.953125 5.671875 -0.953125 C 6.378906 -0.953125 6.976562 -1.09375 7.46875 -1.375 C 7.96875 -1.65625 8.347656 -2.035156 8.609375 -2.515625 C 8.878906 -3.003906 9.015625 -3.648438 9.015625 -4.453125 L 5.703125 -4.453125 Z M 5.703125 -5.6875 "/></g></g></g><g fill="#004aad" fill-opacity="1"><g transform="translate(126.082223, 13.064442)"><g/></g></g><g fill="#004aad" fill-opacity="1"><g transform="translate(135.40192, 13.064442)"><g><path d="M 7.46875 -7.515625 C 7.4375 -8.191406 7.179688 -8.722656 6.703125 -9.109375 C 6.234375 -9.492188 5.609375 -9.6875 4.828125 -9.6875 C 4.046875 -9.6875 3.445312 -9.523438 3.03125 -9.203125 C 2.613281 -8.878906 2.40625 -8.414062 2.40625 -7.8125 C 2.40625 -7.488281 2.492188 -7.210938 2.671875 -6.984375 C 2.859375 -6.753906 3.1875 -6.582031 3.65625 -6.46875 L 6.703125 -5.78125 C 7.515625 -5.601562 8.117188 -5.265625 8.515625 -4.765625 C 8.910156 -4.265625 9.109375 -3.65625 9.109375 -2.9375 C 9.109375 -1.882812 8.722656 -1.082031 7.953125 -0.53125 C 7.179688 0.0078125 6.179688 0.28125 4.953125 0.28125 C 4.003906 0.28125 3.257812 0.160156 2.71875 -0.078125 C 2.175781 -0.316406 1.695312 -0.695312 1.28125 -1.21875 C 0.863281 -1.75 0.65625 -2.488281 0.65625 -3.4375 L 2 -3.4375 C 2 -2.644531 2.257812 -2.03125 2.78125 -1.59375 C 3.3125 -1.164062 4.03125 -0.953125 4.9375 -0.953125 C 5.8125 -0.953125 6.492188 -1.101562 6.984375 -1.40625 C 7.472656 -1.71875 7.71875 -2.160156 7.71875 -2.734375 C 7.71875 -3.253906 7.570312 -3.644531 7.28125 -3.90625 C 6.988281 -4.164062 6.414062 -4.394531 5.5625 -4.59375 L 3.28125 -5.125 C 2.519531 -5.300781 1.945312 -5.601562 1.5625 -6.03125 C 1.1875 -6.46875 1 -7 1 -7.625 C 1 -8.582031 1.320312 -9.367188 1.96875 -9.984375 C 2.613281 -10.609375 3.515625 -10.921875 4.671875 -10.921875 C 5.972656 -10.921875 6.972656 -10.644531 7.671875 -10.09375 C 8.378906 -9.550781 8.757812 -8.691406 8.8125 -7.515625 Z M 7.46875 -7.515625 "/></g></g></g><g fill="#004aad" fill-opacity="1"><g transform="translate(150.910136, 13.064442)"><g><path d="M 8.59375 -7.4375 C 8.4375 -8.15625 8.101562 -8.703125 7.59375 -9.078125 C 7.082031 -9.453125 6.421875 -9.640625 5.609375 -9.640625 C 4.566406 -9.640625 3.726562 -9.257812 3.09375 -8.5 C 2.457031 -7.738281 2.140625 -6.710938 2.140625 -5.421875 C 2.140625 -3.929688 2.4375 -2.816406 3.03125 -2.078125 C 3.632812 -1.347656 4.507812 -0.984375 5.65625 -0.984375 C 6.40625 -0.984375 7.050781 -1.234375 7.59375 -1.734375 C 8.132812 -2.234375 8.5 -2.957031 8.6875 -3.90625 L 10.09375 -3.90625 C 9.90625 -2.539062 9.382812 -1.5 8.53125 -0.78125 C 7.6875 -0.0703125 6.65625 0.28125 5.4375 0.28125 C 3.988281 0.28125 2.828125 -0.21875 1.953125 -1.21875 C 1.085938 -2.21875 0.65625 -3.601562 0.65625 -5.375 C 0.65625 -7.082031 1.109375 -8.429688 2.015625 -9.421875 C 2.921875 -10.421875 4.117188 -10.921875 5.609375 -10.921875 C 6.847656 -10.921875 7.847656 -10.597656 8.609375 -9.953125 C 9.378906 -9.316406 9.835938 -8.476562 9.984375 -7.4375 Z M 8.59375 -7.4375 "/></g></g></g><g fill="#004aad" fill-opacity="1"><g transform="translate(167.322058, 13.064442)"><g><path d="M 9.609375 0 L 8.171875 0 L 8.171875 -4.96875 L 2.625 -4.96875 L 2.625 0 L 1.203125 0 L 1.203125 -10.625 L 2.625 -10.625 L 2.625 -6.234375 L 8.171875 -6.234375 L 8.171875 -10.625 L 9.609375 -10.625 Z M 9.609375 0 "/></g></g></g><g fill="#004aad" fill-opacity="1"><g transform="translate(183.835194, 13.064442)"><g><path d="M 9.46875 -5.3125 C 9.46875 -6.5625 9.140625 -7.59375 8.484375 -8.40625 C 7.828125 -9.226562 6.921875 -9.640625 5.765625 -9.640625 C 4.628906 -9.640625 3.726562 -9.226562 3.0625 -8.40625 C 2.394531 -7.59375 2.0625 -6.5625 2.0625 -5.3125 C 2.0625 -4.03125 2.398438 -2.988281 3.078125 -2.1875 C 3.753906 -1.382812 4.648438 -0.984375 5.765625 -0.984375 C 6.859375 -0.984375 7.75 -1.375 8.4375 -2.15625 C 9.125 -2.9375 9.46875 -3.988281 9.46875 -5.3125 Z M 10.9375 -5.3125 C 10.9375 -3.726562 10.476562 -2.398438 9.5625 -1.328125 C 8.644531 -0.253906 7.378906 0.28125 5.765625 0.28125 C 4.128906 0.28125 2.851562 -0.253906 1.9375 -1.328125 C 1.03125 -2.398438 0.578125 -3.726562 0.578125 -5.3125 C 0.578125 -6.90625 1.03125 -8.238281 1.9375 -9.3125 C 2.851562 -10.382812 4.128906 -10.921875 5.765625 -10.921875 C 7.429688 -10.921875 8.707031 -10.375 9.59375 -9.28125 C 10.488281 -8.1875 10.9375 -6.863281 10.9375 -5.3125 Z M 10.9375 -5.3125 "/></g></g></g><g fill="#004aad" fill-opacity="1"><g transform="translate(201.056828, 13.064442)"><g><path d="M 9.46875 -5.3125 C 9.46875 -6.5625 9.140625 -7.59375 8.484375 -8.40625 C 7.828125 -9.226562 6.921875 -9.640625 5.765625 -9.640625 C 4.628906 -9.640625 3.726562 -9.226562 3.0625 -8.40625 C 2.394531 -7.59375 2.0625 -6.5625 2.0625 -5.3125 C 2.0625 -4.03125 2.398438 -2.988281 3.078125 -2.1875 C 3.753906 -1.382812 4.648438 -0.984375 5.765625 -0.984375 C 6.859375 -0.984375 7.75 -1.375 8.4375 -2.15625 C 9.125 -2.9375 9.46875 -3.988281 9.46875 -5.3125 Z M 10.9375 -5.3125 C 10.9375 -3.726562 10.476562 -2.398438 9.5625 -1.328125 C 8.644531 -0.253906 7.378906 0.28125 5.765625 0.28125 C 4.128906 0.28125 2.851562 -0.253906 1.9375 -1.328125 C 1.03125 -2.398438 0.578125 -3.726562 0.578125 -5.3125 C 0.578125 -6.90625 1.03125 -8.238281 1.9375 -9.3125 C 2.851562 -10.382812 4.128906 -10.921875 5.765625 -10.921875 C 7.429688 -10.921875 8.707031 -10.375 9.59375 -9.28125 C 10.488281 -8.1875 10.9375 -6.863281 10.9375 -5.3125 Z M 10.9375 -5.3125 "/></g></g></g><g fill="#004aad" fill-opacity="1"><g transform="translate(218.278462, 13.064442)"><g><path d="M 2.625 -1.265625 L 8.03125 -1.265625 L 8.03125 0 L 1.203125 0 L 1.203125 -10.625 L 2.625 -10.625 Z M 2.625 -1.265625 "/></g></g></g></g></g></svg>